<svg width="117" height="23" viewBox="0 0 117 23" fill="none" xmlns="http://www.w3.org/2000/svg">
<path fill-rule="evenodd" clip-rule="evenodd" d="M115.316 20.0766C116.111 20.0766 116.744 20.7045 116.744 21.4915C116.744 22.2875 116.111 22.9065 115.309 22.9065C114.515 22.9065 113.87 22.2875 113.87 21.4915C113.87 20.7045 114.515 20.0766 115.309 20.0766H115.316ZM23.3761 22.7173H19.4415L19.2739 21.7533C17.4761 22.7173 15.8731 22.8747 14.8166 22.8747C11.9295 22.8747 10.394 21.0069 10.394 18.421C10.394 15.3718 12.1863 14.2822 15.3923 14.2822H18.6528V13.6243C18.6528 12.0678 18.4707 11.6115 15.9934 11.6115H11.9696L12.3649 7.79101H16.7784C22.1921 7.79101 23.3797 9.45361 23.3797 13.6561V22.7173H23.3761ZM81.9931 16.7266C81.9931 19.8396 80.6689 22.8588 75.1259 22.8588C69.5775 22.8588 68.2278 19.8396 68.2278 16.7266V13.7198C68.2278 10.6068 69.5757 7.58761 75.1241 7.58761C80.6798 7.58761 82.0095 10.6068 82.0095 13.7215V16.7284L81.9931 16.7266ZM97.1083 16.7266C97.1083 19.8396 95.7822 22.8588 90.2411 22.8588C84.6908 22.8588 83.3411 19.8396 83.3411 16.7266V13.7198C83.3411 10.6068 84.689 7.58761 90.2393 7.58761C95.7767 7.58761 97.1064 10.6068 97.1064 13.7215V16.7284L97.1083 16.7266ZM115.309 20.2994C114.672 20.2994 114.143 20.83 114.143 21.4898C114.143 22.1619 114.672 22.689 115.316 22.689C115.963 22.7067 116.482 22.176 116.482 21.5039C116.482 20.8495 115.963 20.3153 115.316 20.3153H115.309V20.2994ZM7.24451 22.6872H2.52673V11.615H0.166016V7.79455H2.52491V5.50405C2.52491 2.3911 3.85463 0.537476 7.63979 0.537476H10.791V4.35792H8.82378C7.34834 4.35792 7.24998 4.88854 7.24998 5.8861L7.23176 7.79632H10.802L10.383 11.6168H7.23358V22.689L7.24451 22.6872ZM115.038 22.3158H114.779V20.7363C114.925 20.7186 115.052 20.7009 115.253 20.7009C115.502 20.7009 115.664 20.7487 115.763 20.8177C115.861 20.8884 115.908 20.9945 115.908 21.1449C115.908 21.3518 115.77 21.4774 115.599 21.5287V21.5411C115.737 21.5658 115.835 21.6896 115.872 21.9231C115.908 22.1672 115.945 22.2627 115.97 22.3122H115.697C115.661 22.2627 115.619 22.1177 115.588 21.9125C115.551 21.7091 115.442 21.6348 115.238 21.6348H115.056V22.314L115.038 22.3158ZM115.038 21.4403H115.225C115.438 21.4403 115.619 21.3642 115.619 21.1696C115.619 21.0317 115.517 20.8937 115.225 20.8937C115.141 20.8937 115.08 20.899 115.038 20.9061V21.4403ZM15.1136 18.3627C15.1136 19.1975 15.5216 19.6308 16.4178 19.6308C17.3832 19.6308 17.9515 19.3266 18.6546 19.0118V17.3404H16.5489C15.5507 17.3404 15.1136 17.5172 15.1136 18.3609V18.3627ZM60.1821 11.401C59.2166 11.401 58.5244 11.7017 57.8213 12.02V19.0596C58.4953 19.1215 58.8815 19.1215 59.5226 19.1215C61.836 19.1215 62.1493 18.0956 62.1493 16.6629V13.2953C62.1493 12.2411 61.785 11.3904 60.1821 11.3904V11.401ZM75.1096 11.401C73.503 11.401 72.9474 12.25 72.9474 13.2935V17.1493C72.9474 18.2106 73.503 19.0596 75.1096 19.0596C76.7125 19.0596 77.2699 18.2106 77.2699 17.1493V13.2935C77.2699 12.2394 76.7052 11.3886 75.1023 11.3886L75.1096 11.401ZM36.7534 11.8785C34.3053 11.4717 33.6022 11.3833 32.4255 11.3833C30.3088 11.3833 29.6695 11.8308 29.6695 13.5765V16.8663C29.6695 18.6085 30.307 19.0596 32.4255 19.0596C33.604 19.0596 34.3053 18.9711 36.7534 18.5643V22.2857C34.6095 22.7544 33.2124 22.8765 32.032 22.8765C26.9645 22.8765 24.9499 20.2941 24.9499 16.5621V13.8913C24.9499 10.1523 26.9645 7.56462 32.032 7.56462C33.2124 7.56462 34.6095 7.68843 36.7534 8.15714V11.8785ZM51.5261 16.5657H42.8702V16.8663C42.8702 18.6085 43.5077 19.0596 45.6243 19.0596C47.5278 19.0596 48.6845 18.9711 51.129 18.5643V22.2857C48.7738 22.7544 47.546 22.8765 45.2327 22.8765C40.1688 22.8765 38.1651 20.2941 38.1651 16.5621V13.5022C38.1651 10.2354 39.6588 7.55931 44.8502 7.55931C50.0507 7.55931 51.5352 10.2036 51.5352 13.5022V16.5621L51.5261 16.5657ZM90.2228 11.401C88.6199 11.401 88.0643 12.25 88.0643 13.2988V17.1599C88.0643 18.2212 88.6199 19.0702 90.2228 19.0702C91.8258 19.0702 92.3905 18.2212 92.3905 17.1599V13.297C92.3905 12.2411 91.8258 11.3904 90.2228 11.3904V11.401ZM112.622 22.6854H107.509L103.181 15.6813V22.6854H98.4635V1.6783L103.181 0.917751V14.4396L107.507 7.78924H112.608L107.881 15.041L112.604 22.6819L112.622 22.6854ZM44.8374 11.0119C43.2345 11.0119 42.8702 11.8608 42.8702 12.9221V13.5111H46.8047V12.9168C46.8047 11.8732 46.4404 11.0172 44.8374 11.0172V11.0119ZM66.8707 16.6364C66.8707 20.2446 65.796 22.88 59.3478 22.88C57.0235 22.88 55.6573 22.6784 53.089 22.2963V1.67476L57.8068 0.914214V8.1253C58.8268 7.75741 60.1474 7.57169 61.3497 7.57169C66.0674 7.57169 66.8507 9.62341 66.8507 12.9185V16.6506L66.8707 16.6364Z" fill="#D6DAE5"/>
</svg>
