<svg width="18" height="14" viewBox="0 0 18 14" fill="none" xmlns="http://www.w3.org/2000/svg">
<path fill-rule="evenodd" clip-rule="evenodd" d="M17.0328 1.84038C16.4253 2.11758 15.7726 2.30414 15.0877 2.38895C15.7868 1.95804 16.3239 1.27591 16.5767 0.46339C15.9222 0.862229 15.1973 1.15188 14.4257 1.30797C13.8081 0.631936 12.9276 0.210571 11.9535 0.210571C10.0832 0.210571 8.56631 1.76882 8.56631 3.69014C8.56631 3.9631 8.59598 4.22864 8.65402 4.48331C5.83853 4.33756 3.3424 2.95156 1.67204 0.847388C1.38053 1.36151 1.2135 1.95884 1.2135 2.59645C1.2135 3.80356 1.81147 4.8685 2.72005 5.493C2.16541 5.47445 1.64276 5.31809 1.18615 5.05706V5.10078C1.18615 6.78757 2.35476 8.19344 3.90258 8.51344C3.61882 8.59294 3.31957 8.63534 3.01181 8.63534C2.79357 8.63534 2.581 8.61414 2.37462 8.57306C2.80543 9.95588 4.05659 10.9619 5.53864 10.9899C4.37931 11.9228 2.91868 12.4793 1.33113 12.4793C1.05768 12.4793 0.788618 12.4634 0.523682 12.4308C2.02249 13.4182 3.80327 13.9944 5.71599 13.9944C11.946 13.9944 15.3531 8.69152 15.3531 4.09362C15.3531 3.94256 15.3498 3.79283 15.3433 3.6431C16.0053 3.15283 16.5798 2.53934 17.0338 1.84104" fill="#B6BAC7"/>
</svg>
